<?xml version="1.0" encoding="iso-8859-1"?>
<!-- Generator: Adobe Illustrator 19.0.0, SVG Export Plug-In . SVG Version: 6.00 Build 0)  -->
<svg version="1.1" id="Capa_1" xmlns="http://www.w3.org/2000/svg" xmlns:xlink="http://www.w3.org/1999/xlink" x="0px" y="0px"
	 viewBox="0 0 326.4 326.4" style="enable-background:new 0 0 326.4 326.4;" xml:space="preserve">
<path style="fill:#DEF3F9;" d="M270.596,32.4h9.2c14.4,0,26.4,12,26.4,26.4v235.6c0,14.4-11.6,26.4-26.4,26.4h-232.8
	c-14.4,0-26-12-26-26.4V58.8c0-14.4,11.6-26.4,26-26.4h9.6C56.596,32.4,270.596,32.4,270.596,32.4z"/>
<g>
	<path style="fill:#76BDD3;" d="M279.796,32.4h-9.2h-214.4h-9.6c-14.4,0-26,12-26,26.4v39.6h285.6V58.8
		C306.196,44.4,294.196,32.4,279.796,32.4z"/>
	<ellipse style="fill:#76BDD3;" cx="163.396" cy="206.4" rx="68.8" ry="69.6"/>
</g>
<g>
	<path style="fill:#DEF3F9;" d="M84.996,44.4c0,8-6.4,14.4-14.4,14.4l0,0c-8,0-14.4-6.4-14.4-14.4V32.8V20.4c0-8,6.4-14.4,14.4-14.4
		l0,0c8,0,14.4,6.4,14.4,14.4V44.4z"/>
	<path style="fill:#DEF3F9;" d="M270.596,44.4c0,8-6.4,14.4-14.4,14.4l0,0c-8,0-14.4-6.4-14.4-14.4v-24c0-8,6.4-14.4,14.4-14.4l0,0
		c8,0,14.4,6.4,14.4,14.4V44.4z"/>
</g>
<g>
	<path style="fill:#427C7F;" d="M279.796,26.8h-4v-6.4c0-11.2-8.8-20.4-20-20.4s-20,9.2-20,20.4v6.4h-145.2v-6.4
		c0-11.2-8.8-20.4-20-20.4s-20,9.2-20,20.4v6.4h-4c-17.6,0-31.6,14.4-31.6,32v235.6c0,17.6,14.4,32,31.6,32h233.2
		c17.6,0,31.6-14.4,31.6-32V58.8C311.796,41.2,297.396,26.8,279.796,26.8z M256.196,11.6c4.8,0,8.8,4,8.8,8.8v24
		c0,4.8-4,8.8-8.8,8.8s-8.8-4-8.8-8.8v-12l0,0l0,0v-12C247.396,15.6,251.396,11.6,256.196,11.6z M70.596,11.6c4.8,0,8.8,4,8.8,8.8
		v24c0,4.8-4,8.8-8.8,8.8s-8.8-4-8.8-8.8v-12l0,0l0,0v-12C61.796,15.6,65.796,11.6,70.596,11.6z M46.996,38h4v6.4
		c0,11.2,8.8,20.4,20,20.4s20-9.2,20-20.4V38h145.6v6.4c0,11.2,8.8,20.4,20,20.4s20-9.2,20-20.4V38h4c11.2,0,20.8,9.2,20.8,20.8v34
		h-275.2v-34C26.196,47.6,35.396,38,46.996,38z M279.796,315.6h-232.8c-11.2,0-20.8-9.2-20.8-20.8V104.4h274.4v190.4
		C300.596,306.4,291.396,315.6,279.796,315.6z"/>
	<path style="fill:#427C7F;" d="M237.796,206.4c0-41.6-33.6-75.2-74.4-75.2c-41.2,0-74.4,33.6-74.4,75.2l0,0l0,0
		c0,41.6,33.6,75.2,74.4,75.2l0,0l0,0C204.596,281.6,237.796,248,237.796,206.4L237.796,206.4L237.796,206.4z M168.996,270v-10
		c0-3.2-2.4-5.6-5.6-5.6c-3.2,0-5.6,2.4-5.6,5.6v10c-30.4-2.4-54.8-27.2-57.6-58h9.6l0,0c3.2,0,5.6-2.4,5.6-5.6s-2.4-5.6-5.6-5.6
		h-9.6c2.8-30.8,27.2-55.6,57.6-58v10c0,3.2,2.4,5.6,5.6,5.6s5.6-2.4,5.6-5.6v-10c30.4,2.8,54.8,27.2,57.6,58h-9.6
		c-3.2,0-5.6,2.4-5.6,5.6s2.4,5.6,5.6,5.6h9.6C223.796,242.8,199.396,267.6,168.996,270z"/>
	<path style="fill:#427C7F;" d="M163.396,162.8c-3.2,0-5.6,2.4-5.6,5.6v36l-14.4,17.2c-2,2.4-1.6,6,0.8,8c1.2,0.8,2.4,1.2,3.6,1.2
		c1.6,0,3.2-0.8,4.4-2l15.6-18.8c0.8-1.2,1.2-2.4,1.2-3.6v-38C168.996,165.2,166.596,162.8,163.396,162.8z"/>
</g>
<g>
</g>
<g>
</g>
<g>
</g>
<g>
</g>
<g>
</g>
<g>
</g>
<g>
</g>
<g>
</g>
<g>
</g>
<g>
</g>
<g>
</g>
<g>
</g>
<g>
</g>
<g>
</g>
<g>
</g>
</svg>
